<svg xmlns="http://www.w3.org/2000/svg" xmlns:xlink="http://www.w3.org/1999/xlink" width="165.348" height="91.5" viewBox="0 0 165.348 91.5"><defs><style>.a{fill:#000a37;}.b{fill:url(#g);}.c{fill:#288ce6;}.d{filter:url(#ad);}.e{filter:url(#ab);}.f{filter:url(#z);}.g{filter:url(#x);}.h{filter:url(#v);}.i{filter:url(#t);}.j{filter:url(#r);}.k{filter:url(#p);}.l{filter:url(#n);}.m{filter:url(#l);}.n{filter:url(#j);}.o{filter:url(#h);}.p{filter:url(#e);}.q{filter:url(#c);}.r{filter:url(#a);}</style><filter id="a" x="0" y="0" width="65.772" height="70.239" filterUnits="userSpaceOnUse"><feOffset input="SourceAlpha"/><feGaussianBlur stdDeviation="3" result="b"/><feFlood flood-opacity="0.302"/><feComposite operator="in" in2="b"/><feComposite in="SourceGraphic"/></filter><filter id="c" x="50.739" y="0" width="65.077" height="70.239" filterUnits="userSpaceOnUse"><feOffset input="SourceAlpha"/><feGaussianBlur stdDeviation="3" result="d"/><feFlood flood-opacity="0.302"/><feComposite operator="in" in2="d"/><feComposite in="SourceGraphic"/></filter><filter id="e" x="101.577" y="0" width="63.771" height="70.239" filterUnits="userSpaceOnUse"><feOffset input="SourceAlpha"/><feGaussianBlur stdDeviation="3" result="f"/><feFlood flood-opacity="0.302"/><feComposite operator="in" in2="f"/><feComposite in="SourceGraphic"/></filter><linearGradient id="g" x1="0.5" y1="1" x2="0.5" gradientUnits="objectBoundingBox"><stop offset="0" stop-color="#288ce6"/><stop offset="1" stop-color="#000a37"/></linearGradient><filter id="h" x="73.02" y="28.12" width="60.677" height="53.166" filterUnits="userSpaceOnUse"><feOffset input="SourceAlpha"/><feGaussianBlur stdDeviation="3" result="i"/><feFlood flood-opacity="0.302"/><feComposite operator="in" in2="i"/><feComposite in="SourceGraphic"/></filter><filter id="j" x="7.064" y="77.072" width="13.716" height="14.139" filterUnits="userSpaceOnUse"><feOffset dy="1" input="SourceAlpha"/><feGaussianBlur stdDeviation="0.5" result="k"/><feFlood flood-opacity="0.302"/><feComposite operator="in" in2="k"/><feComposite in="SourceGraphic"/></filter><filter id="l" x="19.367" y="76.799" width="14.291" height="14.701" filterUnits="userSpaceOnUse"><feOffset dy="1" input="SourceAlpha"/><feGaussianBlur stdDeviation="0.5" result="m"/><feFlood flood-opacity="0.302"/><feComposite operator="in" in2="m"/><feComposite in="SourceGraphic"/></filter><filter id="n" x="30.775" y="77.045" width="20.415" height="14.208" filterUnits="userSpaceOnUse"><feOffset dy="1" input="SourceAlpha"/><feGaussianBlur stdDeviation="0.5" result="o"/><feFlood flood-opacity="0.302"/><feComposite operator="in" in2="o"/><feComposite in="SourceGraphic"/></filter><filter id="p" x="52.723" y="77.072" width="15.043" height="14.155" filterUnits="userSpaceOnUse"><feOffset dy="1" input="SourceAlpha"/><feGaussianBlur stdDeviation="0.5" result="q"/><feFlood flood-opacity="0.302"/><feComposite operator="in" in2="q"/><feComposite in="SourceGraphic"/></filter><filter id="r" x="66.001" y="77.072" width="9.203" height="14.155" filterUnits="userSpaceOnUse"><feOffset dy="1" input="SourceAlpha"/><feGaussianBlur stdDeviation="0.5" result="s"/><feFlood flood-opacity="0.302"/><feComposite operator="in" in2="s"/><feComposite in="SourceGraphic"/></filter><filter id="t" x="73.444" y="77.073" width="15.333" height="14.168" filterUnits="userSpaceOnUse"><feOffset dy="1" input="SourceAlpha"/><feGaussianBlur stdDeviation="0.5" result="u"/><feFlood flood-opacity="0.302"/><feComposite operator="in" in2="u"/><feComposite in="SourceGraphic"/></filter><filter id="v" x="87.02" y="77.072" width="12.991" height="14.149" filterUnits="userSpaceOnUse"><feOffset dy="1" input="SourceAlpha"/><feGaussianBlur stdDeviation="0.5" result="w"/><feFlood flood-opacity="0.302"/><feComposite operator="in" in2="w"/><feComposite in="SourceGraphic"/></filter><filter id="x" x="98.601" y="77.072" width="15.045" height="14.155" filterUnits="userSpaceOnUse"><feOffset dy="1" input="SourceAlpha"/><feGaussianBlur stdDeviation="0.5" result="y"/><feFlood flood-opacity="0.302"/><feComposite operator="in" in2="y"/><feComposite in="SourceGraphic"/></filter><filter id="z" x="115.457" y="77.072" width="13.012" height="14.148" filterUnits="userSpaceOnUse"><feOffset dy="1" input="SourceAlpha"/><feGaussianBlur stdDeviation="0.5" result="aa"/><feFlood flood-opacity="0.302"/><feComposite operator="in" in2="aa"/><feComposite in="SourceGraphic"/></filter><filter id="ab" x="126.836" y="77.045" width="15.083" height="14.18" filterUnits="userSpaceOnUse"><feOffset dy="1" input="SourceAlpha"/><feGaussianBlur stdDeviation="0.5" result="ac"/><feFlood flood-opacity="0.302"/><feComposite operator="in" in2="ac"/><feComposite in="SourceGraphic"/></filter><filter id="ad" x="137.457" y="77.045" width="20.42" height="14.208" filterUnits="userSpaceOnUse"><feOffset dy="1" input="SourceAlpha"/><feGaussianBlur stdDeviation="0.5" result="ae"/><feFlood flood-opacity="0.302"/><feComposite operator="in" in2="ae"/><feComposite in="SourceGraphic"/></filter></defs><g transform="translate(-397.166 -231)"><g class="r" transform="matrix(1, 0, 0, 1, 397.17, 231)"><path class="a" d="M409,291.008l3.616-.533c4.232-.616,4.771-1.847,4.771-5.308V247.079c0-3.467-.533-4.693-4.771-5.309L409,241.236V240h25.384c10.463,0,19.925,3,19.925,12.079,0,7.467-6.463,11.232-15.925,12.464v.307c11.387.693,18.388,4.617,18.388,12.925,0,9.467-7.771,14.464-21.543,14.464H409Zm23.773-26.851c7.616,0,10.533-4.231,10.533-12,0-8.156-3.308-10.771-10.309-10.771h-5v22.771ZM428,286.469c0,3,1.307,4.385,4.533,4.385h1.847c7,0,10.533-3.848,10.533-13.311,0-8.693-4.463-12-12.079-12H428Z" transform="translate(-400 -231)"/></g><g class="q" transform="matrix(1, 0, 0, 1, 397.17, 231)"><path class="a" d="M817.468,292.239c-4.771,0-9.309-.077-14.156-.077-4.771,0-9,.077-13.772.077v-1.231l3.616-.533c4.232-.616,4.771-1.769,4.771-5.232V247.079c0-3.467-.533-4.693-4.771-5.309l-3.616-.533V240h23.843c14.541,0,23.235,4.463,23.235,14.617,0,9.848-9.924,14.387-22.619,14.387-1.385,0-4-.076-5.467-.231V284.7c0,3.693.924,5.155,5.232,5.771l3.693.533Zm8-37.621c0-9.467-4-13.232-12.08-13.232h-4.853v26c1.308.076,4.077.231,5.467.231C820.923,267.62,825.468,263.619,825.468,254.617Z" transform="translate(-729.8 -231)"/></g><g class="p" transform="matrix(1, 0, 0, 1, 397.17, 231)"><path class="a" d="M1170.83,291.008l3.616-.533c4.231-.616,4.77-1.847,4.77-5.308V247.079c0-3.467-.534-4.693-4.77-5.309l-3.616-.533V240c4.769,0,9,.077,13.771.077,4.847,0,9.079-.077,13.849-.077v1.231l-3.771.533c-4.308.616-4.847,1.924-4.847,5.467v39.239c0,3,1.308,4.385,4.533,4.385h4.385c6.924,0,11.233-4.155,16.464-18.773h1.385l-.533,20.157H1170.83Z" transform="translate(-1060.25 -231)"/></g><g class="o" transform="matrix(1, 0, 0, 1, 397.17, 231)"><path class="b" d="M999.327,485.048a29.632,29.632,0,0,1-11.2.816c-16.221-1.367-20.444-16.079-23.964-24.841-2.545-5.523-5.255-8.36-7.514-9.449C978.683,445.4,974.651,483.758,999.327,485.048Z" transform="translate(-874.63 -413.78)"/></g><g class="n" transform="matrix(1, 0, 0, 1, 397.17, 231)"><path class="c" d="M405.73,765.177l.689-.115c.869-.148,1-.411,1-1.2v-7.991c0-.788-.133-1.051-1-1.2l-.689-.115v-.267H411.6c2.413,0,4.3.689,4.3,2.56,0,1.675-1.345,2.4-3.545,2.659v.067c2.627.18,4.087,1.067,4.087,2.8,0,1.969-1.525,3.053-4.628,3.053H405.73Zm5.369-5.744c1.395,0,1.92-.952,1.92-2.511s-.559-2.315-1.888-2.315h-.885v4.825Zm-.853,4.808c0,.624.267.887.869.887h.344c1.183,0,1.9-.837,1.9-2.839,0-1.805-.836-2.544-2.215-2.544h-.9Z" transform="translate(-397.17 -676.72)"/></g><g class="m" transform="matrix(1, 0, 0, 1, 397.17, 231)"><path class="c" d="M503.651,763.941a5.854,5.854,0,1,1,5.64-5.859A5.539,5.539,0,0,1,503.651,763.941Zm0-.279c2,0,2.609-2.445,2.609-5.58s-.591-5.564-2.609-5.564-2.609,2.413-2.609,5.564S501.632,763.663,503.651,763.663Z" transform="translate(-477.13 -674.94)"/></g><g class="l" transform="matrix(1, 0, 0, 1, 397.17, 231)"><path class="c" d="M585.529,756.387c-.459-1.467-.771-1.789-1.476-1.92l-.493-.083v-.267c1.051.017,2.117.017,3.168.017s2.1,0,3.151-.017v.267l-.705.1c-.821.148-.968.575-.689,1.527l1.8,6.252,2.267-8.172h1.428l2.461,8.189,1.527-5.023c.608-2.019.345-2.412-.933-2.724l-.608-.148v-.267c.772.017,1.511.017,2.281.017s1.509,0,2.267-.017v.267l-.423.093c-1,.279-1.625.952-2.232,2.856l-1.641,5.284-.772,2.675h-1.416l-2.463-7.943-1.476,5.208-.723,2.74H588.4Z" transform="translate(-551.29 -676.54)"/></g><g class="k" transform="matrix(1, 0, 0, 1, 397.17, 231)"><path class="c" d="M757.373,765.439c-1.2,0-1.477-.213-1.855-1.248l-1.637-4.037H753.6c-.213,0-.541-.016-.9-.032v3.741c0,.788.133,1.051,1,1.2l.689.115v.267c-1.067,0-2.052-.017-3.1-.017s-2.052.017-3.119.017v-.267l.689-.115c.869-.148,1-.411,1-1.2v-7.992c0-.788-.133-1.051-1-1.2l-.689-.115v-.267h5.577c2.691,0,4.841.705,4.841,2.889,0,1.525-1.248,2.347-2.609,2.625.557.229.853.607,1.231,1.411l1.28,2.611c.4.82.656,1.115,1.313,1.263l.409.083v.267Zm-1.723-8.207c0-2.035-.756-2.641-2.1-2.641H752.7v5.235c.361.017.64.017.9.017C754.814,759.843,755.65,759.17,755.65,757.233Z" transform="translate(-693.95 -676.72)"/></g><g class="j" transform="matrix(1, 0, 0, 1, 397.17, 231)"><path class="c" d="M847.76,765.177l.689-.115c.869-.148,1-.411,1-1.2v-7.991c0-.788-.133-1.051-1-1.2l-.689-.115v-.267c1.051.017,2.051.017,3.1.017s2.052,0,3.1-.017v.267l-.689.115c-.869.148-1,.411-1,1.2v7.992c0,.788.133,1.051,1,1.2l.689.115v.267c-1.049,0-2.035-.017-3.1-.017s-2.051.017-3.1.017Z" transform="translate(-780.26 -676.72)"/></g><g class="i" transform="matrix(1, 0, 0, 1, 397.17, 231)"><path class="c" d="M905.615,756.585c-.508-1.444-.836-1.805-1.559-1.936l-.476-.083V754.3c1.051.017,2.1.017,3.151.017s2.084,0,3.119-.017v.267l-.673.1c-.8.148-.984.541-.667,1.527l2.249,6.777,2.051-5.547c.667-1.821.476-2.4-.739-2.692l-.705-.164V754.3c.755.017,1.509.017,2.267.017s1.525,0,2.281-.017v.267l-.444.115c-1.017.28-1.592.933-2.313,2.84l-2.1,5.6-.8,2.347H908.8Z" transform="translate(-828.64 -676.73)"/></g><g class="h" transform="matrix(1, 0, 0, 1, 397.17, 231)"><path class="c" d="M1015.312,765.439H1005.4v-.267l.689-.115c.87-.148,1-.411,1-1.2v-7.987c0-.788-.133-1.051-1-1.2l-.689-.115v-.267h9.485l.083,3.867h-.344c-1.019-2.659-1.937-3.561-3.381-3.561h-1.333v4.94h.575c1,0,1.477-.673,2.116-2.576h.247c-.016.9-.016,1.837-.016,2.756s0,1.839.016,2.757h-.247c-.656-2.035-1.115-2.625-2.133-2.625h-.557v4.381c0,.624.267.887.869.887h.543c1.657,0,2.625-.837,3.741-3.741h.328Z" transform="translate(-916.88 -676.72)"/></g><g class="g" transform="matrix(1, 0, 0, 1, 397.17, 231)"><path class="c" d="M1101.468,765.439c-1.2,0-1.477-.213-1.855-1.248l-1.641-4.037h-.28c-.213,0-.541-.016-.9-.032v3.741c0,.788.134,1.051,1,1.2l.689.115v.267c-1.067,0-2.052-.017-3.1-.017s-2.051.017-3.117.017v-.267l.689-.115c.869-.148,1-.411,1-1.2v-7.992c0-.788-.133-1.051-1-1.2l-.689-.115v-.267h5.58c2.69,0,4.841.705,4.841,2.889,0,1.525-1.248,2.347-2.609,2.625.557.229.854.607,1.231,1.411l1.28,2.611c.4.82.656,1.115,1.313,1.263l.409.083v.267Zm-1.724-8.207c0-2.035-.755-2.641-2.1-2.641h-.854v5.235c.361.017.64.017.9.017C1098.908,759.843,1099.744,759.17,1099.744,757.233Z" transform="translate(-992.16 -676.72)"/></g><g class="f" transform="matrix(1, 0, 0, 1, 397.17, 231)"><path class="c" d="M1218.68,765.177l.689-.115c.871-.148,1-.411,1-1.2v-7.991c0-.788-.133-1.051-1-1.2l-.689-.115v-.267c1.084.017,2.1.017,3.168.017s2.084,0,3.151-.017v.267l-.721.115c-.933.148-1.084.444-1.084,1.231v8.337c0,.624.267.887.871.887h.591c1.428,0,2.461-.837,3.741-4.1h.3l-.067,4.415h-9.945Z" transform="translate(-1101.72 -676.72)"/></g><g class="e" transform="matrix(1, 0, 0, 1, 397.17, 231)"><path class="c" d="M1313.1,765.249c-1.035,0-2.019.017-3.053.017V765l.707-.1c.788-.148.9-.525.574-1.527l-.525-1.525h-3.759l-.115.311c-.64,1.708-.46,2.364.739,2.676l.667.164v.267c-.755,0-1.411-.017-2.165-.017s-1.412.017-2.151.017V765l.46-.133c.919-.279,1.345-.836,2.084-2.8l2.1-5.629.787-2.347h1.5l3.265,8.895c.541,1.509.788,1.821,1.428,1.936l.459.083v.267C1315.071,765.266,1314.135,765.249,1313.1,765.249Zm-5.926-3.757h3.5l-1.691-4.907Z" transform="translate(-1175.68 -676.54)"/></g><g class="d" transform="matrix(1, 0, 0, 1, 397.17, 231)"><path class="c" d="M1385.649,756.387c-.46-1.467-.771-1.789-1.477-1.92l-.492-.083v-.267c1.051.017,2.117.017,3.167.017s2.1,0,3.152-.017v.267l-.707.1c-.82.148-.968.575-.689,1.527l1.807,6.252,2.267-8.172h1.428l2.461,8.189,1.527-5.023c.607-2.019.344-2.412-.933-2.724l-.607-.148v-.267c.771.017,1.509.017,2.281.017s1.509,0,2.267-.017v.267l-.427.1c-1,.279-1.624.952-2.232,2.856l-1.652,5.284-.771,2.675h-1.411l-2.463-7.943-1.477,5.2-.721,2.74h-1.424Z" transform="translate(-1244.72 -676.54)"/></g></g></svg>